<svg width="20" height="17" viewBox="0 0 20 17" fill="none" xmlns="http://www.w3.org/2000/svg">
<g id="bxl-twitter">
<path id="Path" d="M17.7695 4.72477C17.7825 4.89977 17.7825 5.07377 17.7825 5.24777C17.7825 10.5728 13.7295 16.7088 6.3225 16.7088C4.0405 16.7088 1.92051 16.0478 0.136505 14.8998C0.460505 14.9368 0.772505 14.9498 1.10951 14.9498C2.99251 14.9498 4.7255 14.3138 6.11051 13.2288C4.33951 13.1918 2.85551 12.0318 2.34351 10.4358C2.59251 10.4728 2.8425 10.4978 3.10451 10.4978C3.46551 10.4978 3.82851 10.4478 4.1655 10.3608C2.3185 9.98677 0.935505 8.36576 0.935505 6.40776V6.35777C1.47251 6.65676 2.0955 6.84377 2.75551 6.86877C1.67051 6.14677 0.959505 4.91177 0.959505 3.51477C0.959505 2.76677 1.15851 2.08077 1.50751 1.48277C3.49051 3.92577 6.47151 5.52277 9.81351 5.69777C9.7515 5.39777 9.7135 5.08676 9.7135 4.77477C9.7135 2.55476 11.5095 0.746765 13.7415 0.746765C14.9015 0.746765 15.9485 1.23277 16.6845 2.01877C17.5945 1.84377 18.4665 1.50677 19.2405 1.04577C18.9415 1.98077 18.3045 2.76677 17.4695 3.26577C18.2805 3.17777 19.0665 2.95377 19.7885 2.64177C19.2405 3.43976 18.5555 4.15076 17.7695 4.72477Z" fill="#1DA1F2"/>
</g>
</svg>
