<svg width="19" height="19" viewBox="0 0 19 19" fill="none" xmlns="http://www.w3.org/2000/svg">
<g id="bxl-google">
<path id="Path" d="M17.9975 8.10276H9.67051V11.5538H14.4625C14.0165 13.7468 12.1495 15.0068 9.67051 15.0068C6.74751 15.0068 4.39151 12.6508 4.39151 9.72676C4.39151 6.80376 6.74751 4.44776 9.67051 4.44776C10.9295 4.44776 12.0675 4.89476 12.9605 5.62576L15.5605 3.02676C13.9765 1.64576 11.9455 0.793762 9.67051 0.793762C4.71651 0.793762 0.736511 4.77276 0.736511 9.72776C0.736511 14.6828 4.71551 18.6618 9.67051 18.6618C14.1375 18.6618 18.1995 15.4128 18.1995 9.72776C18.1995 9.19976 18.1185 8.63076 17.9975 8.10276Z" fill="#DB4437"/>
</g>
</svg>
