<svg width="35" height="28" viewBox="0 0 35 28" fill="none" xmlns="http://www.w3.org/2000/svg">
<g id="Logo">
<g id="logo">
<path id="Rectangle" fill-rule="evenodd" clip-rule="evenodd" d="M1.72203 0.175742L7.9317 4.01014C8.26489 4.21587 8.46774 4.57962 8.46774 4.97134V22.4883C8.46774 22.8856 8.25917 23.2536 7.91845 23.4576L1.70877 27.1751C1.1737 27.4954 0.48039 27.3211 0.160209 26.7858C0.055368 26.6105 0 26.4101 0 26.2058V1.13694C0 0.513113 0.505485 0.00740051 1.12903 0.00740051C1.33848 0.00740051 1.5438 0.0656869 1.72203 0.175742Z" fill="#9155FD"/>
<path id="Rectangle_2" opacity="0.077704" fill-rule="evenodd" clip-rule="evenodd" d="M0 9.13708L8.46774 13.9947V18.7569L0 9.13708Z" fill="black"/>
<path id="Rectangle_3" opacity="0.077704" fill-rule="evenodd" clip-rule="evenodd" d="M0 9.13708L8.46774 13.871V16.7802L0 9.13708Z" fill="black"/>
<path id="Rectangle_4" fill-rule="evenodd" clip-rule="evenodd" d="M33.2794 0.171299L27.0697 3.99285C26.7357 4.1984 26.5323 4.56262 26.5323 4.95493V22.4883C26.5323 22.8856 26.7408 23.2536 27.0816 23.4576L33.2912 27.1751C33.8263 27.4954 34.5196 27.3211 34.8398 26.7858C34.9446 26.6105 35 26.4101 35 26.2058V1.13339C35 0.509557 34.4945 0.00384521 33.871 0.00384521C33.6621 0.00384521 33.4573 0.0618122 33.2794 0.171299Z" fill="#9155FD"/>
<path id="Rectangle_5" opacity="0.077704" fill-rule="evenodd" clip-rule="evenodd" d="M35 9.13708L26.5323 13.9845V18.9007L35 9.13708Z" fill="black"/>
<path id="Rectangle_6" opacity="0.077704" fill-rule="evenodd" clip-rule="evenodd" d="M35 9.13708L26.5323 13.8669V16.924L35 9.13708Z" fill="black"/>
<path id="Rectangle_7" fill-rule="evenodd" clip-rule="evenodd" d="M1.71902 0.166493L17.5 9.84305V19.1618L0 9.1345V1.12954C0 0.505712 0.505485 0 1.12903 0C1.33728 0 1.54147 0.0576217 1.71902 0.166493Z" fill="#9155FD"/>
<path id="Rectangle_8" fill-rule="evenodd" clip-rule="evenodd" d="M1.71902 0.166493L17.5 9.84305V19.1618L0 9.1345V1.12954C0 0.505712 0.505485 0 1.12903 0C1.33728 0 1.54147 0.0576217 1.71902 0.166493Z" fill="white" fill-opacity="0.15"/>
<path id="Rectangle_9" fill-rule="evenodd" clip-rule="evenodd" d="M33.281 0.166493L17.5 9.84305V19.1618L35 9.1345V1.12954C35 0.505712 34.4945 0 33.871 0C33.6627 0 33.4585 0.0576217 33.281 0.166493Z" fill="#9155FD"/>
<path id="Rectangle_10" fill-rule="evenodd" clip-rule="evenodd" d="M33.281 0.166493L17.5 9.84305V19.1618L35 9.1345V1.12954C35 0.505712 34.4945 0 33.871 0C33.6627 0 33.4585 0.0576217 33.281 0.166493Z" fill="white" fill-opacity="0.3"/>
</g>
</g>
</svg>
